<svg id="Layer_1" data-name="Layer 1" xmlns="http://www.w3.org/2000/svg" viewBox="0 0 208.36 35.04"><path d="M2.37,13.51,15.91,7.57v2.92L5.47,14.84l10.44,4.58v2.93L2.37,16.19Z"/><path d="M33.13,29.33a.54.54,0,0,1,0-.76s3.26-3.18,7.67-7.3c-1.1.14-2.21.31-3.34.51A58,58,0,0,0,19.1,28a.52.52,0,0,1-.72-.2.53.53,0,0,1,.21-.73,59,59,0,0,1,18.7-6.3c1.65-.28,3.27-.51,4.85-.69,7.54-7,17.68-15.92,21.73-17.46,1.21-.46,1.9-.21,2.2.58.73,1.92-2.55,8.22-5.28,13.45-.57,1.09-1.11,2.12-1.58,3,.47,0,.89.06,1.27.1,2.43.2,3.31.66,3.26,1.31s-1.6,1.36-3.34,2c-.93.37-1.94.75-2.73,1.14-.55.27-.91.17-1.12-.25s.22-1.68,1-3.34a95.5,95.5,0,0,0-15,.43c-4.93,4.57-8.68,8.24-8.71,8.27A.54.54,0,0,1,33.13,29.33Zm10.78-9.48a98.92,98.92,0,0,1,14.15-.27c.52-1,1.14-2.23,1.78-3.47,2.62-5,5.79-11.09,5.23-12.57-.06-.16-.32-.17-.83,0C60.52,5,51.23,13.1,43.91,19.85Zm13.68,3.23c.76-.35,1.62-.68,2.43-1A21.73,21.73,0,0,0,62.67,21l-2.29-.18-1.7-.12A22.83,22.83,0,0,0,57.59,23.08Z"/><path d="M78.88,19.35a.48.48,0,0,1-.36.57s-5.83,1.41-7.47,2.41c-.72.45-1.1.47-1.32.1s-.07-.54.07-.94A3.39,3.39,0,0,0,70,19.07c-.5-1.21-5.12,5.93-5.14,5.95a.47.47,0,0,1-.66.15.48.48,0,0,1-.2-.55h0c4.11-13,7-19.58,8.76-22.11,1.13-1.66,2-1.85,2.47-1,.33.53.33,1.77,0,3.39-.83,4.06-3.72,10.93-8.63,14.87-.24.71-.48,1.44-.73,2.2,1.76-2.3,4.26-5.06,5-3.22a3.88,3.88,0,0,1,0,2.63A51.33,51.33,0,0,1,78.3,19,.49.49,0,0,1,78.88,19.35Zm-11.7-1.46A27.81,27.81,0,0,0,74.24,4.67,5.18,5.18,0,0,0,74.36,2c0-.06-.3.26-.86,1.07C72.15,5,70.05,9.55,67.18,17.89Z"/><path d="M81,19a.48.48,0,0,1-.13-.67c.51-.75.67-1.19.63-1.41,0,0-.15,0-.34,0a3.33,3.33,0,0,0-1.29.61c-.65.49-1.17,1.17-.94,1.77A8.5,8.5,0,0,0,80.09,21l.1.13c2.85-1.18,5.47-2.11,5.5-2.12A.48.48,0,0,1,86,20s-2.61.93-5.25,2a3.73,3.73,0,0,1,.81,1.92c0,1.24-1,2.18-4.92,2.18-6.85,0-2.08-2.48,2.79-4.55a9.38,9.38,0,0,1-1.36-1.83c-.43-1.09.3-2.17,1.26-2.89A4.19,4.19,0,0,1,81,16c.72-.12,1.29.08,1.43.75a3.08,3.08,0,0,1-.76,2.15A.48.48,0,0,1,81,19Zm-1.19,3.3c-3.46,1.45-7.76,3.07-3.31,2.78,3.16-.21,4.09-.53,4.07-1.21A3.38,3.38,0,0,0,79.85,22.33Z"/><path d="M89.1,18c.17-.16.27-.25.27-.26a.48.48,0,0,1,.81.38h0s-.14,2.14.83,2,2-1.26,2.82-2c.51-.5,1.82-1.71,2.25-1.58.55.33-.15,1.87-.53,3.07,1.58-1.87,4-4.35,4.09-2,.06,1.67.26,2.66.8,2.9s1.69-.18,3.55-1.41a.49.49,0,0,1,.67.14.48.48,0,0,1-.14.66c-2.16,1.43-3.54,1.9-4.47,1.49s-1.27-1.57-1.34-3.62c0-.62-3.4,3.66-3.72,4.08a.48.48,0,0,1-.88-.36s.74-2.56,1-3.32c0,0-.28.27-.65.64-.88.85-2.15,2.08-3.32,2.28-1.36.24-1.79-1-1.92-1.9-1.28,1.1-3.78,3-4.12,1.49a1.59,1.59,0,0,1,0-.78,3.46,3.46,0,0,1,1.14-1.52A4.48,4.48,0,0,1,88,17.48a1.59,1.59,0,0,1,.81,0A.48.48,0,0,1,89.1,18Zm-.61.37a.69.69,0,0,0-.31,0,3.31,3.31,0,0,0-1.26.67,2.45,2.45,0,0,0-.82,1.06.49.49,0,0,0,0,.29c.07.26,1.66-1.15,2.61-2A.65.65,0,0,1,88.49,18.4Z"/><path d="M132.1,11.9a.49.49,0,0,1-.3.61c-7.5,2.58-13.73,3.3-16.88,2.81-1.42-.21-2.3-.71-2.51-1.42s.29-1.59,1.64-2.5c2.88-1.94,10.09-4.52,23.3-7.12C150,1.79,157.76,1.49,161.28,2.4c1.65.42,2.48,1.14,2.56,2.07s-.58,1.87-1.91,2.89c-3.28,2.52-11,5.54-22,7.67l-5.52,1.08c-.31.64-.62,1.3-.91,1.95a28.15,28.15,0,0,1,6,.84c1.62.48,2.38,1.29,2.53,2.25a3.27,3.27,0,0,1-.69,2.37,9.94,9.94,0,0,1-2.11,2.16c-2.62,2.05-6.44,3.49-8.26,2.47-1.65-.92-.58-4.91,1.18-9.2l-2.85-.09c-2.56-.07-4.49-.12-4.62-.78s2.28-1.37,9.11-2.8c1.26-2.67,2.58-5.14,3.45-6.71-.11.1-.21.22-.33.35a.48.48,0,1,1-.71-.65,4.72,4.72,0,0,1,2.3-1.68.41.41,0,0,1,.22,0h0l.13,0a.49.49,0,0,1,.18.66s-2.1,3.61-4.16,7.76c1.43-.3,3-.61,4.82-1C150.59,12,158.16,9,161.35,6.6c1.05-.81,1.58-1.51,1.53-2s-.64-.91-1.84-1.22c-3.4-.88-11-.57-23.51,1.9-13.07,2.56-20.16,5.09-23,7-1,.64-1.34,1.12-1.25,1.43s.71.59,1.74.74c3,.46,9.07-.25,16.41-2.77A.49.49,0,0,1,132.1,11.9Zm-6.46,6c0,.11,1.57-.06,3.69,0,1,0,2.1.06,3.23.11.24-.56.49-1.13.75-1.69C127.68,17.43,125.63,17.85,125.64,17.9Zm7.42,1.1c-1.74,4-2.88,7.6-1.61,8.31,1.48.83,4.83-.53,7.2-2.38A9.19,9.19,0,0,0,140.56,23a2.43,2.43,0,0,0,.54-1.67c-.1-.6-.66-1.13-1.87-1.5A29.18,29.18,0,0,0,133.06,19Z"/><path d="M146.4,18.12a.49.49,0,0,1,.06.68,6.19,6.19,0,0,0-1.1,1.75,1,1,0,0,0-.08.5.22.22,0,0,0,.13.14,1,1,0,0,0,.44.07,8.16,8.16,0,0,0,2.42-.62,20,20,0,0,0,3.21-1.54.47.47,0,0,1,.67.11.49.49,0,0,1-.11.67,20.16,20.16,0,0,1-3.43,1.65,8.91,8.91,0,0,1-2.76.7,2,2,0,0,1-.85-.17,1.14,1.14,0,0,1-.65-.79,2,2,0,0,1,.09-1,7.18,7.18,0,0,1,1.28-2,.49.49,0,0,1,.38-.18A.5.5,0,0,1,146.4,18.12Zm2.53-3.21a.48.48,0,0,1-.36.58c-.75.17-1.42,1.58-1.42,1.59a.49.49,0,0,1-.64.22.47.47,0,0,1-.23-.64s.87-1.83,2.07-2.11h.1A.46.46,0,0,1,148.93,14.91Z"/><path d="M153.46,23.46a.48.48,0,0,1-.27.63,1.54,1.54,0,0,1-1.76-.17c-.69-.67-.68-2.26-.26-4.25a40,40,0,0,1,2-6.31C155,9,157.3,5,158.35,5.27a.88.88,0,0,1,.42.23,2.1,2.1,0,0,1,.57,1.36,6.38,6.38,0,0,1-.27,2.29c-.61,2.27-2.4,5.67-6.51,10.26a3.26,3.26,0,0,1-.45.46c-.36,1.68-.43,3,0,3.35.13.12.37.13.74,0A.49.49,0,0,1,153.46,23.46Zm-.84-5.57c3.45-4,5-7,5.53-9A5.53,5.53,0,0,0,158.38,7a1.2,1.2,0,0,0-.26-.75l0,0c-.55-.15-2.42,3.54-4,7.52C153.52,15.11,153,16.56,152.62,17.89Z"/><path d="M159.47,19.12a7.2,7.2,0,0,0,.64-.8.48.48,0,0,1,.67-.13.49.49,0,0,1,.21.47c-.27,2-.35,2.73-.25,2.75a6.15,6.15,0,0,0,1.63-.81c.74-.43,1.68-1,2.87-1.55a.47.47,0,0,1,.64.22.48.48,0,0,1-.22.65c-1.16.55-2.08,1.09-2.81,1.51-1,.61-1.72,1-2.24.93-.7-.1-.88-.73-.76-2.24a6.8,6.8,0,0,1-3.92,2.21c-.89.09-1.3-.3-1.36-.91a2.42,2.42,0,0,1,.48-1.44,4.86,4.86,0,0,1,1.22-1.26c1-.74,2.27-1,3.12.2A.5.5,0,0,1,159.47,19.12Zm-.87.36c-.43-.61-1.15-.42-1.77,0a4.25,4.25,0,0,0-1,1,1.56,1.56,0,0,0-.32.82s.09.06.31,0a5.56,5.56,0,0,0,3.1-1.69A.55.55,0,0,1,158.6,19.48Z"/><path d="M167.1,23.46a.49.49,0,0,1-.27.63,1.54,1.54,0,0,1-1.76-.17c-.69-.67-.69-2.26-.26-4.25a40,40,0,0,1,2-6.31C168.58,9,170.94,5,172,5.27a.88.88,0,0,1,.42.23A2.1,2.1,0,0,1,173,6.86a6.33,6.33,0,0,1-.26,2.29c-.62,2.27-2.4,5.67-6.51,10.26a3.92,3.92,0,0,1-.45.46c-.36,1.68-.43,3,0,3.35.13.12.37.13.74,0A.49.49,0,0,1,167.1,23.46Zm-.85-5.57c3.46-4,5-7,5.54-9A5.53,5.53,0,0,0,172,7a1.2,1.2,0,0,0-.26-.75l0,0c-.55-.15-2.43,3.54-4,7.52C167.16,15.11,166.65,16.56,166.25,17.89Z"/><path d="M177.36,23.5l11-17.95h3l-11,18Z"/><path d="M206,16.4l-13.54,6V19.42l10.46-4.36-10.46-4.59V7.57L206,13.7Z"/></svg>