<svg xmlns="http://www.w3.org/2000/svg" viewBox="0 0 205.88 23.51"><g id="Layer_2" data-name="Layer 2"><g id="Layer_1-2" data-name="Layer 1"><path d="M21,22.65,26.34,4.1h3.79l5.35,18.55H32.74L28.35,6.35h-.23l-4.39,16.3Zm2.48-4.52V15.65h9.4v2.48Z" transform="translate(-1.25 -1.62)"/><path d="M38.27,22.65V3.06H41V22.65Zm8.51,0v-9a2.93,2.93,0,0,0-.65-2,2.39,2.39,0,0,0-1.83-.71c-2.18,0-3.27,1.33-3.27,4l-.81-3.55H41.3a2.72,2.72,0,0,1,1-2.08A4.29,4.29,0,0,1,45,8.54a4.34,4.34,0,0,1,3.4,1.33,5.42,5.42,0,0,1,1.2,3.76v9Z" transform="translate(-1.25 -1.62)"/><path d="M58.51,22.91c-1,0-1.94,0-2.69-.09a18.43,18.43,0,0,1-2-.3L54.09,20c.92.14,1.72.24,2.43.31s1.36.11,2,.11A8.08,8.08,0,0,0,61.56,20a1.36,1.36,0,0,0,.94-1.31,1.2,1.2,0,0,0-.33-.93,2.21,2.21,0,0,0-1-.48L58,16.48a8.15,8.15,0,0,1-3-1.29,2.82,2.82,0,0,1-1-2.34,3.53,3.53,0,0,1,1.74-3.29,11.64,11.64,0,0,1,5.62-1c.67,0,1.3,0,1.88.06s1.17.11,1.78.2l-.29,2.41q-1.05-.11-1.86-.15c-.54,0-1.07,0-1.58,0a10.4,10.4,0,0,0-3.37.4,1.37,1.37,0,0,0-1,1.3,1,1,0,0,0,.43.87,4.91,4.91,0,0,0,1.32.49l2.56.63a7.5,7.5,0,0,1,3.19,1.39,3.18,3.18,0,0,1,1,2.55,3.52,3.52,0,0,1-1.64,3.24A10.19,10.19,0,0,1,58.51,22.91Z" transform="translate(-1.25 -1.62)"/><path d="M73.21,22.91a4.89,4.89,0,0,1-3.35-1.05,3.69,3.69,0,0,1-1.19-2.95,3.88,3.88,0,0,1,1.64-3.37,7.86,7.86,0,0,1,4.63-1.17,14.67,14.67,0,0,1,2.21.15,7.92,7.92,0,0,1,1.73.45l-.57,1.88a9.58,9.58,0,0,0-1.71-.23c-.56,0-1.13,0-1.72,0q-3.6,0-3.6,2.19a1.71,1.71,0,0,0,.62,1.41,2.75,2.75,0,0,0,1.76.5,4.67,4.67,0,0,0,2.16-.45,3.16,3.16,0,0,0,1.3-1.13,2.65,2.65,0,0,0,.43-1.43V16.17l.81,3.55h-1.1l.45-.42a3.48,3.48,0,0,1-.56,2,3.39,3.39,0,0,1-1.56,1.2A6.55,6.55,0,0,1,73.21,22.91Zm4.89-.13-.19-4.1-.36-1.15V14a2.27,2.27,0,0,0-1-2,5.54,5.54,0,0,0-2.9-.7l-3.31-.09.26-2.46,2.79,0a7.93,7.93,0,0,1,5.1,1.48,5.22,5.22,0,0,1,1.67,4.18v5.77l2.35.29v2.22Z" transform="translate(-1.25 -1.62)"/><path d="M85.28,22.65V8.8h2.51l.26,2.93V22.65Zm8.52,0v-9a2.66,2.66,0,0,0-.66-1.93A2.41,2.41,0,0,0,91.31,11q-3.25,0-3.26,3.84l-.81-3.55h1.07a2.75,2.75,0,0,1,1-2.08,5.15,5.15,0,0,1,6,.64,5.42,5.42,0,0,1,1.2,3.76v9Z" transform="translate(-1.25 -1.62)"/><path d="M100.85,22.65V4.1h2.61V22.65Zm1.54-9.12V12.25h5.43v1.28Zm.89-.73V11.61h3.13A3.55,3.55,0,0,0,108.7,11a2.28,2.28,0,0,0,.82-1.89,2.17,2.17,0,0,0-.86-1.84,4,4,0,0,0-2.43-.64h-2.9L103,4.1h3.34a6.9,6.9,0,0,1,4.36,1.22,4.19,4.19,0,0,1,1.54,3.48,3.42,3.42,0,0,1-1.46,3,7.13,7.13,0,0,1-4.15,1Zm0,9.85V20.16h3.91a4.06,4.06,0,0,0,2.68-.79,2.69,2.69,0,0,0,1-2.21,2.78,2.78,0,0,0-1-2.27,4.4,4.4,0,0,0-2.82-.8h-3.68L103,12.9h4.64A6.91,6.91,0,0,1,112,14.12a4.13,4.13,0,0,1,1.54,3.43,4.8,4.8,0,0,1-1.47,3.76A5.92,5.92,0,0,1,108,22.65Z" transform="translate(-1.25 -1.62)"/><path d="M116.52,22.65V20.37h5.54v2.28Zm.78-11.58V8.8h7.26v2.27Zm5.79-4.46A1.87,1.87,0,0,1,121.72,6a1.84,1.84,0,0,1-.56-1.36,1.87,1.87,0,0,1,.56-1.38A1.93,1.93,0,0,1,125,4.68,1.88,1.88,0,0,1,124.46,6,1.86,1.86,0,0,1,123.09,6.61Zm-1.29,16V9.59h2.76V22.65Zm2.5,0V20.37h4.52v2.28Z" transform="translate(-1.25 -1.62)"/><path d="M131.38,5.33V3.06h4.31V5.33ZM140,22.91a4.23,4.23,0,0,1-3.47-1.31,6.53,6.53,0,0,1-1.07-4.18V3.06h2.76V17.29a6.31,6.31,0,0,0,.21,1.79,1.68,1.68,0,0,0,.82,1,3.84,3.84,0,0,0,1.8.33,10.25,10.25,0,0,0,2.76-.5l.32,2.43a16.7,16.7,0,0,1-2,.42A17.15,17.15,0,0,1,140,22.91Z" transform="translate(-1.25 -1.62)"/><path d="M151.57,22.91a4.89,4.89,0,0,1-3.35-1.05A3.69,3.69,0,0,1,147,18.91a3.88,3.88,0,0,1,1.64-3.37,7.86,7.86,0,0,1,4.63-1.17,14.67,14.67,0,0,1,2.21.15,8.08,8.08,0,0,1,1.73.45l-.57,1.88a9.57,9.57,0,0,0-1.72-.23q-.82,0-1.71,0-3.6,0-3.6,2.19a1.71,1.71,0,0,0,.62,1.41,2.75,2.75,0,0,0,1.76.5,4.67,4.67,0,0,0,2.16-.45,3.16,3.16,0,0,0,1.3-1.13,2.74,2.74,0,0,0,.43-1.43V16.17l.81,3.55h-1.1l.44-.42a3.47,3.47,0,0,1-.55,2,3.39,3.39,0,0,1-1.56,1.2A6.55,6.55,0,0,1,151.57,22.91Zm4.89-.13-.19-4.1-.36-1.15V14a2.27,2.27,0,0,0-1-2,5.54,5.54,0,0,0-2.9-.7l-3.31-.09L149,8.67l2.79,0a7.93,7.93,0,0,1,5.1,1.48,5.22,5.22,0,0,1,1.67,4.18v5.77l2.35.29v2.22Z" transform="translate(-1.25 -1.62)"/><path d="M162.72,5.33V3.06H167V5.33Zm8.62,17.58a4.23,4.23,0,0,1-3.47-1.31,6.59,6.59,0,0,1-1.07-4.18V3.06h2.77V17.29a6.31,6.31,0,0,0,.21,1.79,1.67,1.67,0,0,0,.81,1,3.9,3.9,0,0,0,1.8.33,10.37,10.37,0,0,0,2.77-.5l.31,2.43a16.32,16.32,0,0,1-2,.42A17.15,17.15,0,0,1,171.34,22.91Z" transform="translate(-1.25 -1.62)"/><path d="M178.61,25.13l10.5-23.51h2.76l-10.5,23.51Z" transform="translate(-1.25 -1.62)"/><path d="M13.77,20.07,1.25,14.92V12.29L13.77,7.14V10L4.1,13.49v.23l9.67,3.48Z" transform="translate(-1.25 -1.62)"/><path d="M194.62,20.07V17.2l9.14-3.48v-.23L194.62,10V7.14l12.51,5.15v2.63Z" transform="translate(-1.25 -1.62)"/></g></g></svg>